<?xml version="1.0" encoding="UTF-8"?>
<svg width="54px" height="54px" viewBox="0 0 54 54" version="1.1" xmlns="http://www.w3.org/2000/svg" xmlns:xlink="http://www.w3.org/1999/xlink">
    <!-- Generator: Sketch 64 (93537) - https://sketch.com -->
    <title>Slice</title>
    <desc>Created with Sketch.</desc>
    <g id="Page-1" stroke="none" stroke-width="1" fill="none" fill-rule="evenodd">
        <g id="Group" transform="translate(4.000000, 12.000000)" fill="#FFFFFF" fill-rule="nonzero">
            <path d="M7.0431802,22 L29.9569203,22 C30.5351493,22 31,21.5113108 31,20.9166408 L31,4.08335916 C31,3.48280136 30.5294803,3 29.9569203,3 L7.0431802,3 C6.46495123,3 6.0000498,3.48868919 6.0000498,4.08335916 L6.0000498,20.9166408 C5.99443158,21.5113108 6.46495123,22 7.0431802,22 Z M7.32095686,15.6411528 L11.345884,15.6411528 C11.6520052,15.6411528 11.9014373,15.4527425 12.0261534,15.1289123 L13.0238818,12.5441587 C13.2903206,11.8552835 13.5567595,11.1664084 13.8231983,10.4834211 L15.3651422,16.5361016 L15.4161624,16.7362876 C15.5011961,17.0542299 15.7562971,17.2661915 16.0680872,17.2720793 C16.0737561,17.2720793 16.085094,17.2720793 16.0907629,17.2720793 C16.4082219,17.2720793 16.6916675,17.0601178 16.7937079,16.753951 L17.0034576,16.1004029 C17.2925721,15.1995662 17.5816866,14.2987295 17.8708011,13.3861171 L18.8401849,15.27022 C18.964901,15.5057329 19.2086642,15.6470406 19.4807719,15.6470406 C19.7472108,15.6411528 19.9796361,15.4939572 20.0873455,15.2643322 L20.7279324,13.9277967 C20.9206754,13.521537 21.1190873,13.1093895 21.3118303,12.7031298 L22.4456126,15.2584444 C22.5646598,15.5292842 22.8594432,15.6529284 23.0805307,15.6529284 L29.6791436,15.6529284 L29.6791436,20.6340254 L7.32095686,20.6340254 L7.32095686,15.6411528 Z M29.6791436,14.1574218 L23.5397125,14.1574218 L21.975093,10.6306167 C21.8673836,10.389216 21.6349583,10.2420205 21.3571816,10.2361326 C21.073736,10.2361326 20.8299729,10.3833282 20.7165946,10.618841 L19.4410895,13.2742485 L18.3469896,11.1428571 C18.2166047,10.8955686 17.9671726,10.7483731 17.683727,10.7719244 C17.3889436,10.7954757 17.1281737,11.0074372 17.0374711,11.2959405 L16.1928033,13.9454602 L14.6565283,7.93399442 C14.5771635,7.61605206 14.288049,7.3805392 13.9649211,7.3805392 C13.6644688,7.3805392 13.4093678,7.56894949 13.2846517,7.89277967 L12.4059704,10.1772544 C11.9354508,11.3901456 11.4649311,12.6089247 11.0000804,13.8218159 L10.8696954,14.1515339 L7.32662577,14.1515339 L7.32662577,4.37186241 L29.6848125,4.37186241 L29.6848125,14.1574218 L29.6791436,14.1574218 Z" id="Shape"></path>
            <path d="M46.737992,6.61711454 C46.57158,6.48713551 46.3457352,6.43396226 46.1377202,6.48713551 C46.1139471,6.49304364 44.5924661,7.08385744 42.4766567,6.08538212 C41.4781849,5.61273108 40.2300951,5.22870212 38.9225724,4.99828473 L38.9225724,1.15208691 C38.9225724,0.514008005 38.3995633,0 37.7576886,0 L1.16488383,0 C0.523009066,0 0,0.519916143 0,1.15208691 L0,28.0813798 C0,28.7194587 0.523009066,29.2334667 1.16488383,29.2334667 L2.75768417,29.2334667 L2.75768417,29.3457214 C2.75768417,30.2614828 3.50653806,31 4.42180392,31 L10.0322648,31 C10.4780112,31 10.8999844,30.828664 11.2149785,30.5096245 C11.5299726,30.1964932 11.6963846,29.7829236 11.6963846,29.3457214 L11.6963846,29.2275586 L26.7744982,29.2275586 L26.7744982,29.3398132 C26.7744982,30.2555746 27.5233521,30.9940919 28.438618,30.9940919 L34.0490788,30.9940919 C34.4948252,30.9940919 34.9167984,30.8227559 35.2258492,30.5037164 C35.5408433,30.1905851 35.7072553,29.7770154 35.7072553,29.3398132 L35.7072553,29.2216505 L37.7517453,29.2216505 C38.3936201,29.2216505 38.9166291,28.7017343 38.9166291,28.0695636 L38.9166291,19.3668763 C39.5644472,19.4968553 40.2122652,19.7036402 40.8006504,20.040404 C42.6608986,21.0979607 43.3919226,21.3165618 44.5924661,21.3165618 C45.674144,21.3165618 46.3932815,21.1393177 46.4705442,21.1215933 C46.779595,21.0388794 46.9997593,20.7611969 46.9997593,20.4480656 L46.9997593,7.16657137 C47.0054398,6.94797027 46.9103472,6.75300172 46.737992,6.61711454 Z M34.2630371,29.2334667 L34.2630371,29.3516295 C34.2630371,29.4638841 34.1738878,29.5525062 34.0609654,29.5525062 L28.4505045,29.5525062 C28.3375821,29.5525062 28.2484328,29.4638841 28.2484328,29.3516295 L28.2484328,29.2334667 L34.2630371,29.2334667 Z M10.2462231,29.2334667 L10.2462231,29.3516295 C10.2462231,29.4638841 10.1570738,29.5525062 10.0441514,29.5525062 L4.43369049,29.5525062 C4.32076808,29.5525062 4.23161881,29.4638841 4.23161881,29.3516295 L4.23161881,29.2334667 L10.2462231,29.2334667 Z M34.2749237,6.4398704 C36.6522376,5.8017915 39.8913278,6.41032971 41.876385,7.34972365 C43.6534271,8.18867925 44.5389766,8.11778159 45.6028246,7.99371069 L45.6028246,19.8631599 C44.7232184,19.9695064 43.6653137,20.0581285 41.5079013,18.8351439 C40.3014145,18.1497999 38.8215366,17.8012197 37.1098705,17.8012197 C35.9687598,17.8012197 34.9465149,17.9607395 34.2749237,18.0966266 L34.2749237,6.4398704 Z M37.4605243,4.81513246 C36.4323361,4.73832666 35.4100911,4.77968363 34.4651088,4.96283591 C34.2154908,4.14160473 33.4606936,3.53897465 32.5513711,3.53897465 C31.4459201,3.53897465 30.5484841,4.43110349 30.5484841,5.53592529 L30.5484841,20.5071469 C30.5484841,21.6060606 31.4459201,22.5040976 32.5513711,22.5040976 C33.656822,22.5040976 34.5542581,21.6119687 34.5542581,20.5071469 L34.5542581,19.4673147 C35.2377358,19.3255193 36.3015838,19.1659996 37.4605243,19.2073566 L37.4605243,27.7859729 L1.46799136,27.7859729 L1.46799136,1.45340194 L37.4664676,1.45340194 L37.4664676,4.81513246 L37.4605243,4.81513246 Z M33.1516428,20.5071469 C33.1516428,20.8380027 32.884195,21.1038689 32.5513711,21.1038689 C32.2185471,21.1038689 31.9510993,20.8380027 31.9510993,20.5071469 L31.9510993,5.53592529 C31.9510993,5.20506956 32.2185471,4.93920335 32.5513711,4.93920335 C32.8307055,4.93920335 33.0565503,5.13417191 33.1219264,5.39412998 C32.967401,5.52410901 32.8663652,5.71907757 32.8663652,5.9258624 L32.8663652,18.9828473 C32.8663652,19.2014484 32.9733443,19.4141414 33.1516428,19.5441204 L33.1516428,20.5071469 Z" id="Shape"></path>
        </g>
    </g>
</svg>