<?xml version="1.0" standalone="no"?><!DOCTYPE svg PUBLIC "-//W3C//DTD SVG 1.1//EN" "http://www.w3.org/Graphics/SVG/1.1/DTD/svg11.dtd"><svg t="1619797645013" class="icon" viewBox="0 0 1024 1024" version="1.1" xmlns="http://www.w3.org/2000/svg" p-id="1947" xmlns:xlink="http://www.w3.org/1999/xlink" width="500" height="500"><defs><style type="text/css"></style></defs><path d="M333.683451 967.238275h339.32549a28.109804 28.109804 0 0 1 28.109804 28.109803v0.542118a28.109804 28.109804 0 0 1-28.109804 28.109804h-339.32549a28.109804 28.109804 0 0 1-28.109804-28.109804v-0.542118a28.109804 28.109804 0 0 1 28.109804-28.109803z m180.86651-758.944628l-28.651922 0.301177-80.875921-107.339295C368.117961 52.304314 298.706824 42.385569 249.956392 79.10902 201.205961 115.852549 191.608471 185.323922 228.492549 234.275137l80.875922 107.339294-8.171922 27.447216c-19.616627 65.857255-7.770353 136.392784 33.611294 191.327373 41.401725 54.934588 105.933804 85.734902 174.642196 85.032156l28.651922-0.281098 80.875921 107.319216c36.904157 48.971294 106.315294 58.890039 155.065726 22.14651 48.750431-36.743529 58.347922-106.214902 21.463843-155.166118l-80.875922-107.319215 8.171922-27.467295c19.616627-65.857255 7.770353-136.372706-33.611294-191.307294-41.401725-54.934588-105.933804-85.734902-174.642196-85.052235z m219.758431 51.039373c53.850353 71.439059 66.720627 161.189647 42.746981 241.744313l63.568313 84.369569c55.757804 73.98902 41.241098 178.979137-32.426666 234.496-73.667765 55.496784-178.577569 40.518275-234.355451-33.470745l-63.568314-84.369569c-84.028235 0.843294-166.751373-36.261647-220.581647-107.720784-53.850353-71.439059-66.720627-161.189647-42.746981-241.724235l-63.568313-84.369569C127.61851 194.29898 142.135216 89.308863 215.80298 33.771922 289.470745-21.704784 394.380549-6.726275 450.158431 67.262745l63.568314 84.369569c84.028235-0.843294 166.751373 36.261647 220.581647 107.700706z m-124.66698 297.120627c-72.483137 54.613333-175.083922 41.160784-229.094902-30.519216-54.01098-71.68-38.711216-174.019765 33.812078-228.653176 72.483137-54.633412 175.083922-41.160784 229.094902 30.519216 54.01098 71.68 38.711216 174.019765-33.812078 228.653176z m-30.72-40.799372c50.256314-37.888 60.79749-108.323137 23.93349-157.254275-36.884078-48.931137-107.479843-58.227451-157.756235-20.319373-50.276392 37.888-60.837647 108.303059-23.953569 157.234197 36.884078 48.951216 107.479843 58.227451 157.756235 20.339451z" fill="#ffffff" p-id="1948"></path></svg>