<?xml version="1.0" standalone="no"?><!DOCTYPE svg PUBLIC "-//W3C//DTD SVG 1.1//EN" "http://www.w3.org/Graphics/SVG/1.1/DTD/svg11.dtd"><svg t="1619797672365" class="icon" viewBox="0 0 1024 1024" version="1.1" xmlns="http://www.w3.org/2000/svg" p-id="2888" xmlns:xlink="http://www.w3.org/1999/xlink" width="500" height="500"><defs><style type="text/css"></style></defs><path d="M725.406 271.787v-82.271c0-59.456-48.157-107.613-107.613-107.613H402.567c-59.456 0-107.613 48.157-107.613 107.613v82.271C228.924 330.903 187.34 416.76 187.34 512.356s41.583 181.453 107.613 240.569v82.271c0 59.456 48.157 107.613 107.613 107.613h215.227c59.456 0 107.613-48.157 107.613-107.613v-82.271c66.03-59.116 107.613-144.973 107.613-240.569s-41.583-181.453-107.613-240.569z m-358.71-82.271c0-19.819 16.052-35.871 35.871-35.871h215.227c19.819 0 35.871 16.052 35.871 35.871v33.639c-43.224-21.496-91.928-33.639-143.484-33.639-51.556 0-100.251 12.142-143.484 33.639v-33.639h-0.001z m286.968 645.68c0 19.819-16.052 35.871-35.871 35.871H402.567c-19.819 0-35.871-16.052-35.871-35.871v-33.639c43.233 21.496 91.928 33.639 143.484 33.639 51.556 0 100.26-12.142 143.484-33.639v33.639zM510.18 763.453c-138.677 0-251.097-112.42-251.097-251.097s112.42-251.097 251.097-251.097 251.097 112.42 251.097 251.097-112.42 251.097-251.097 251.097z m71.742-143.484a35.793 35.793 0 0 1-25.362-10.51l-71.741-71.743a35.868 35.868 0 0 1-10.51-25.361V368.872c0-19.812 16.06-35.872 35.871-35.872 19.811 0 35.871 16.06 35.871 35.872v128.624l61.232 61.241a35.871 35.871 0 0 1-25.361 61.232z" p-id="2889" fill="#ffffff"></path></svg>