<?xml version="1.0" encoding="UTF-8"?>
<svg width="54px" height="54px" viewBox="0 0 54 54" version="1.1" xmlns="http://www.w3.org/2000/svg" xmlns:xlink="http://www.w3.org/1999/xlink">
    <!-- Generator: Sketch 64 (93537) - https://sketch.com -->
    <title>Slice</title>
    <desc>Created with Sketch.</desc>
    <g id="Page-1" stroke="none" stroke-width="1" fill="none" fill-rule="evenodd">
        <g id="Group" transform="translate(5.000000, 11.000000)">
            <path d="M29.382,24.846 L27.042,24.846 C26.628,24.846 26.292,25.176 26.292,25.584 C26.292,25.992 26.628,26.322 27.042,26.322 L29.382,26.322 C29.796,26.322 30.132,25.992 30.132,25.584 C30.132,25.176 29.796,24.846 29.382,24.846 Z" id="Path" fill="#FFFFFF" fill-rule="nonzero"></path>
            <path d="M35.46,24.846 L33.12,24.846 C32.706,24.846 32.37,25.176 32.37,25.584 C32.37,25.992 32.706,26.322 33.12,26.322 L35.46,26.322 C35.874,26.322 36.21,25.992 36.21,25.584 C36.21,25.176 35.868,24.846 35.46,24.846 Z" id="Path" fill="#FFFFFF" fill-rule="nonzero"></path>
            <path d="M9.93,24.846 L7.59,24.846 C7.176,24.846 6.84,25.176 6.84,25.584 C6.84,25.992 7.176,26.322 7.59,26.322 L9.93,26.322 C10.344,26.322 10.68,25.992 10.68,25.584 C10.68,25.176 10.344,24.846 9.93,24.846 Z" id="Path" fill="#FFFFFF" fill-rule="nonzero"></path>
            <path d="M15.918,24.846 L13.578,24.846 C13.164,24.846 12.828,25.176 12.828,25.584 C12.828,25.992 13.164,26.322 13.578,26.322 L15.918,26.322 C16.332,26.322 16.668,25.992 16.668,25.584 C16.668,25.176 16.332,24.846 15.918,24.846 Z" id="Path" fill="#FFFFFF" fill-rule="nonzero"></path>
            <path d="M6.888,22.644 L36.528,22.644 C37.146,22.644 37.65,22.146 37.65,21.54 L37.65,5.832 C37.65,5.22 37.146,4.728 36.528,4.728 L6.888,4.728 C6.27,4.728 5.76594698,5.226 5.76594698,5.832 L5.76594698,21.54 C5.76,22.146 6.264,22.644 6.888,22.644 Z M7.188,16.164 L11.514,16.164 C11.844,16.164 12.108,15.972 12.246,15.642 L13.32,13.008 C13.608,12.306 13.89,11.604 14.178,10.908 L15.84,17.076 L15.894,17.28 C15.984,17.604 16.26,17.82 16.59,17.826 C16.596,17.826 16.608,17.826 16.614,17.826 C16.956,17.826 17.262,17.61 17.364,17.298 L17.592,16.632 C17.904,15.714 18.21,14.796 18.522,13.866 L19.56,15.786 C19.692,16.026 19.956,16.17 20.25,16.17 C20.532,16.164 20.784,16.014 20.904,15.78 L21.594,14.418 C21.804,14.004 22.014,13.584 22.224,13.17 L23.442,15.774 C23.568,16.05 23.886,16.176 24.12,16.176 L36.228,16.176 L36.228,21.252 L7.182,21.252 L7.182,16.164 L7.188,16.164 Z M36.228,14.652 L24.612,14.652 L22.926,11.058 C22.812,10.812 22.56,10.662 22.266,10.656 C21.96,10.656 21.696,10.806 21.576,11.046 L20.208,13.752 L19.032,11.58 C18.894,11.328 18.624,11.178 18.324,11.202 C18.006,11.226 17.724,11.442 17.628,11.736 L16.716,14.436 L15.066,8.31 C14.982,7.986 14.67,7.746 14.322,7.746 C13.998,7.746 13.722,7.938 13.59,8.268 L12.642,10.596 C12.138,11.832 11.634,13.074 11.13,14.31 L10.992,14.646 L7.182,14.646 L7.182,6.126 L36.228,6.126 L36.228,14.652 L36.228,14.652 Z" id="Shape" fill="#FFFFFF" fill-rule="nonzero"></path>
            <path d="M41.376,23.388 L41.376,28.638 L2.04,28.638 L2.04,1.896 L41.37,1.896 L41.37,24.786 L42.87,24.786 L42.87,1.596 C42.87,0.948 42.336,0.426 41.676,0.426 L1.728,0.426 C1.074,0.426 0.534,0.954 0.534,1.596 L0.534,28.944 C0.534,29.592 1.068,30.114 1.728,30.114 L4.578,30.114 L4.578,30.228 C4.578,31.158 5.346,31.908 6.282,31.908 L12.036,31.908 C12.492,31.908 12.924,31.734 13.248,31.41 C13.566,31.092 13.746,30.672 13.74,30.228 L13.74,30.108 L29.196,30.108 L29.196,30.222 C29.196,31.152 29.964,31.902 30.906,31.902 L36.66,31.902 C37.116,31.902 37.548,31.728 37.872,31.404 C38.19,31.086 38.37,30.666 38.364,30.222 L38.364,30.102 L41.682,30.102 C42.342,30.102 42.876,29.574 42.876,28.932 L42.876,23.382 L41.376,23.382 L41.376,23.388 Z M12.258,30.234 C12.258,30.348 12.162,30.438 12.048,30.438 L6.294,30.438 C6.18,30.438 6.084,30.348 6.084,30.234 L6.084,30.114 L12.252,30.114 L12.252,30.234 L12.258,30.234 Z M36.876,30.234 C36.876,30.348 36.78,30.438 36.666,30.438 L30.912,30.438 C30.798,30.438 30.702,30.348 30.702,30.234 L30.702,30.114 L36.87,30.114 L36.87,30.234 L36.876,30.234 Z" id="Shape" fill="#FDFDFD" fill-rule="nonzero"></path>
            <ellipse id="Oval" stroke="#FFFFFF" stroke-width="1.5" cx="21.708" cy="25.518" rx="1.728" ry="1.698"></ellipse>
        </g>
    </g>
</svg>